<svg xmlns="http://www.w3.org/2000/svg" viewBox="0 0 1200 930" font-family="Arial, Helvetica, sans-serif">
  <rect width="1200" height="930" fill="#f6f7f9"/>
  <polygon points="0,930 1200,930 1200,700 0,860" fill="#101014"/>
  <polygon points="860,0 1200,0 1200,300" fill="#d92d20"/>
  <text x="80" y="150" font-size="34" font-weight="900" letter-spacing="10" fill="#d92d20">GIAO NHANH TOÀN QUỐC</text>
  <text x="74" y="272" font-size="118" font-weight="900" fill="#101014">FREESHIP</text>
  <text x="78" y="344" font-size="46" font-weight="900" fill="#d92d20">ĐƠN TỪ 500.000Đ</text>
  <g transform="translate(120,300) scale(1.02)"><path d="M60,392 Q48,340 118,330 L860,296 Q952,294 962,352 Q968,408 886,420 L150,462 Q66,458 60,392 Z" fill="#ffffff" stroke="#d92d20" stroke-width="8"/><path d="M118,330 Q128,214 250,164 Q360,120 468,122 Q516,124 560,148 L610,176 Q676,210 762,232 Q880,262 940,330 L118,332 Z" fill="#ffffff" stroke="#d92d20" stroke-width="8"/><g stroke="#101014" stroke-width="12" stroke-linecap="round"><line x1="360" y1="206" x2="430" y2="188"/><line x1="392" y1="238" x2="466" y2="218"/><line x1="424" y1="270" x2="502" y2="248"/></g></g>
  <text x="80" y="878" font-size="27" font-weight="800" fill="#ffffff">FS SHOES — THANH TOÁN VIETQR • VNPAY • COD</text>
</svg>
